<?xml version="1.0" encoding="UTF-8" standalone="no"?>
<!-- Created with Inkscape (http://www.inkscape.org/) -->

<svg
   xmlns:dc="http://purl.org/dc/elements/1.1/"
   xmlns:cc="http://creativecommons.org/ns#"
   xmlns:rdf="http://www.w3.org/1999/02/22-rdf-syntax-ns#"
   xmlns:svg="http://www.w3.org/2000/svg"
   xmlns="http://www.w3.org/2000/svg"
   xmlns:sodipodi="http://sodipodi.sourceforge.net/DTD/sodipodi-0.dtd"
   xmlns:inkscape="http://www.inkscape.org/namespaces/inkscape"
   width="43.467686mm"
   height="9.0542593mm"
   viewBox="0 0 43.467686 9.0542593"
   version="1.1"
   id="svg3982"
   inkscape:version="0.92.4 (unknown)"
   sodipodi:docname="alg_5.svg">
  <defs
     id="defs3976">
    <marker
       inkscape:stockid="Arrow1Lend"
       orient="auto"
       refY="0"
       refX="0"
       id="Arrow1Lend-1-3-7"
       style="overflow:visible"
       inkscape:isstock="true">
      <path
         inkscape:connector-curvature="0"
         id="path1177-2-7-8"
         d="M 0,0 5,-5 -12.5,0 5,5 Z"
         style="fill:#004999;fill-opacity:1;fill-rule:evenodd;stroke:#004999;stroke-width:1.00000003pt;stroke-opacity:1"
         transform="matrix(-0.8,0,0,-0.8,-10,0)" />
    </marker>
  </defs>
  <sodipodi:namedview
     id="base"
     pagecolor="#ffffff"
     bordercolor="#666666"
     borderopacity="1.0"
     inkscape:pageopacity="0.0"
     inkscape:pageshadow="2"
     inkscape:zoom="5.6"
     inkscape:cx="87.540113"
     inkscape:cy="22.941166"
     inkscape:document-units="mm"
     inkscape:current-layer="g7364"
     showgrid="false"
     inkscape:window-width="1920"
     inkscape:window-height="1016"
     inkscape:window-x="0"
     inkscape:window-y="27"
     inkscape:window-maximized="1" />
  <metadata
     id="metadata3979">
    <rdf:RDF>
      <cc:Work
         rdf:about="">
        <dc:format>image/svg+xml</dc:format>
        <dc:type
           rdf:resource="http://purl.org/dc/dcmitype/StillImage" />
        <dc:title />
      </cc:Work>
    </rdf:RDF>
  </metadata>
  <g
     inkscape:label="Layer 1"
     inkscape:groupmode="layer"
     id="layer1"
     transform="translate(-99.974488,-215.36573)">
    <g
       id="g7364"
       transform="translate(-113.87485,-91.692213)">
      <g
         transform="translate(-3.7041668,-5.8208336)"
         id="g6831">
        <path
           transform="matrix(0.96987622,0.02615304,-0.02615304,0.96987622,181.59836,214.96556)"
           style="opacity:1;fill:none;fill-opacity:1;stroke:#e41a1c;stroke-width:0.30920544;stroke-linecap:butt;stroke-linejoin:round;stroke-miterlimit:4;stroke-dasharray:none;stroke-opacity:1;paint-order:normal"
           inkscape:transform-center-x="0.0015409023"
           inkscape:transform-center-y="-0.28297133"
           d="m 71.0918,104.88084 -2.029552,0.0492 0.972142,-1.78226 z"
           id="path1281-6-6-2-0-4-8"
           inkscape:connector-curvature="0" />
        <path
           transform="matrix(0.96987622,0.02615304,-0.02615304,0.96987622,181.59836,214.96556)"
           style="opacity:1;fill:none;fill-opacity:1;stroke:#007bff;stroke-width:0.30920544;stroke-linecap:butt;stroke-linejoin:round;stroke-miterlimit:4;stroke-dasharray:none;stroke-opacity:1;paint-order:normal"
           inkscape:transform-center-x="0.0015409023"
           inkscape:transform-center-y="-0.28297133"
           d="m 71.0918,104.88084 -2.029552,0.0492 0.972142,-1.78226 z"
           id="path6643"
           inkscape:connector-curvature="0" />
        <g
           aria-label="sgRNA"
           style="font-style:normal;font-weight:normal;font-size:10.58333302px;line-height:1.25;font-family:sans-serif;letter-spacing:0px;word-spacing:0px;fill:#004999;fill-opacity:1;stroke:none;stroke-width:0.26458332"
           id="text6664">
          <path
             d="m 250.19799,318.17834 q -0.21873,0 -0.41981,-0.0741 -0.20108,-0.0741 -0.32456,-0.20814 -0.0353,-0.0423 -0.0353,-0.0811 0,-0.06 0.0564,-0.10583 0.0423,-0.0318 0.0882,-0.0318 0.06,0 0.1023,0.0494 0.0847,0.0988 0.22225,0.15169 0.14111,0.0529 0.31045,0.0529 0.24694,0 0.37041,-0.0847 0.12347,-0.0847 0.127,-0.22225 0,-0.127 -0.12347,-0.21166 -0.12347,-0.0847 -0.39158,-0.127 -0.34573,-0.0564 -0.51859,-0.19403 -0.16933,-0.14111 -0.16933,-0.33867 0,-0.25753 0.19756,-0.39864 0.20108,-0.14111 0.50094,-0.14111 0.23283,0 0.40569,0.0811 0.17287,0.0776 0.2787,0.21872 0.0282,0.0459 0.0282,0.0811 0,0.06 -0.0564,0.0952 -0.0247,0.0176 -0.067,0.0176 -0.0741,0 -0.12347,-0.0529 -0.17286,-0.19755 -0.47273,-0.19755 -0.19402,0 -0.31044,0.0811 -0.11642,0.0776 -0.11642,0.19755 0,0.127 0.10936,0.20461 0.10937,0.0741 0.38806,0.11995 0.37747,0.0635 0.53975,0.20814 0.16228,0.14111 0.16228,0.35278 0,0.16227 -0.0988,0.28927 -0.0952,0.127 -0.26811,0.19756 -0.17286,0.0705 -0.39158,0.0705 z"
             style="font-style:normal;font-variant:normal;font-weight:normal;font-stretch:normal;font-size:3.52777767px;font-family:Comfortaa;-inkscape-font-specification:Comfortaa;fill:#004999;fill-opacity:1;stroke-width:0.26458332"
             id="path867"
             inkscape:connector-curvature="0" />
          <path
             d="m 252.30407,316.21337 q 0.28222,0 0.50447,0.127 0.22225,0.12347 0.34925,0.34925 0.127,0.22225 0.127,0.508 v 0.71967 q 0,0.28222 -0.127,0.51153 -0.12347,0.2293 -0.34572,0.35983 -0.22225,0.13406 -0.50095,0.13406 -0.27164,0 -0.4833,-0.10231 -0.21167,-0.10231 -0.35631,-0.28575 -0.0317,-0.0353 -0.0317,-0.0811 0,-0.0529 0.0494,-0.0917 0.0353,-0.0247 0.0776,-0.0247 0.0318,0 0.0635,0.0141 0.0318,0.0176 0.0494,0.0423 0.10583,0.13405 0.26811,0.20814 0.16228,0.0741 0.36689,0.0741 0.19756,0 0.35631,-0.0988 0.16227,-0.0952 0.254,-0.27164 0.0917,-0.17286 0.0917,-0.39863 v -0.15875 q -0.10583,0.20108 -0.29986,0.3175 -0.19403,0.11288 -0.44097,0.11288 -0.27517,0 -0.49389,-0.12347 -0.2152,-0.127 -0.33867,-0.34925 -0.11994,-0.22578 -0.11994,-0.508 0,-0.28575 0.127,-0.508 0.127,-0.22578 0.34925,-0.34925 0.22577,-0.127 0.50447,-0.127 z m 0,1.71803 q 0.20461,0 0.36689,-0.0917 0.16227,-0.0952 0.254,-0.26106 0.0917,-0.16933 0.0917,-0.381 0,-0.21166 -0.0917,-0.37747 -0.0917,-0.16933 -0.254,-0.26458 -0.16228,-0.0952 -0.36689,-0.0952 -0.20814,0 -0.37042,0.0952 -0.16228,0.0953 -0.254,0.26458 -0.0917,0.16581 -0.0917,0.37747 0,0.21167 0.0917,0.381 0.0917,0.16581 0.254,0.26106 0.16228,0.0917 0.37042,0.0917 z"
             style="font-style:normal;font-variant:normal;font-weight:normal;font-stretch:normal;font-size:3.52777767px;font-family:Comfortaa;-inkscape-font-specification:Comfortaa;fill:#004999;fill-opacity:1;stroke-width:0.26458332"
             id="path869"
             inkscape:connector-curvature="0" />
          <path
             d="m 255.57078,317.94904 q 0.0317,0.0529 0.0317,0.0952 0,0.0529 -0.0388,0.0847 -0.0388,0.0317 -0.10231,0.0317 -0.0423,0 -0.0705,-0.0176 -0.0282,-0.0176 -0.0494,-0.0529 l -0.635,-1.00894 h -0.06 -0.52212 v 0.94191 q 0,0.06 -0.0388,0.0988 -0.0388,0.0388 -0.0988,0.0388 -0.06,0 -0.0988,-0.0388 -0.0388,-0.0388 -0.0388,-0.0988 v -2.48003 q 0,-0.06 0.0388,-0.0988 0.0388,-0.0388 0.0988,-0.0388 h 0.6597 q 0.25752,0 0.45861,0.10936 0.20108,0.10584 0.31397,0.29986 0.11642,0.19403 0.11642,0.44098 0,0.27163 -0.14817,0.47625 -0.14464,0.20461 -0.39511,0.2928 z m -0.92427,-1.13242 q 0.17638,0 0.3175,-0.0706 0.14463,-0.0741 0.22225,-0.20109 0.0811,-0.127 0.0811,-0.28927 0,-0.16934 -0.0811,-0.30339 -0.0776,-0.13406 -0.21873,-0.20814 -0.14111,-0.0741 -0.32102,-0.0741 h -0.52212 v 1.14653 z"
             style="font-style:normal;font-variant:normal;font-weight:normal;font-stretch:normal;font-size:3.52777767px;font-family:Comfortaa;-inkscape-font-specification:Comfortaa;fill:#004999;fill-opacity:1;stroke-width:0.26458332"
             id="path871"
             inkscape:connector-curvature="0" />
          <path
             d="m 256.16697,318.16071 q -0.06,0 -0.0988,-0.0388 -0.0388,-0.0388 -0.0388,-0.0988 v -2.48003 q 0,-0.06 0.0388,-0.0988 0.0388,-0.0388 0.0988,-0.0388 0.0635,0 0.10583,0.0494 l 1.68628,2.21544 v -2.12725 q 0,-0.06 0.0388,-0.0988 0.0423,-0.0388 0.0988,-0.0388 0.06,0 0.0988,0.0388 0.0388,0.0388 0.0388,0.0988 v 2.48003 q 0,0.0564 -0.0388,0.0988 -0.0388,0.0388 -0.0988,0.0388 -0.0706,0 -0.10231,-0.0459 l -1.68981,-2.21544 v 2.12372 q 0,0.0564 -0.0388,0.0988 -0.0388,0.0388 -0.0988,0.0388 z"
             style="font-style:normal;font-variant:normal;font-weight:normal;font-stretch:normal;font-size:3.52777767px;font-family:Comfortaa;-inkscape-font-specification:Comfortaa;fill:#004999;fill-opacity:1;stroke-width:0.26458332"
             id="path873"
             inkscape:connector-curvature="0" />
          <path
             d="m 261.00708,317.96668 q 0.0141,0.0247 0.0141,0.0564 0,0.0564 -0.0423,0.0988 -0.0388,0.0388 -0.0953,0.0388 -0.0917,0 -0.13053,-0.0847 l -0.23636,-0.5715 h -1.36525 l -0.23636,0.5715 q -0.0282,0.0847 -0.127,0.0847 -0.06,0 -0.0988,-0.0388 -0.0353,-0.0423 -0.0353,-0.0988 0,-0.0353 0.0106,-0.06 l 1.03717,-2.46239 q 0.0388,-0.0953 0.13406,-0.0953 0.0952,0 0.13052,0.0953 z m -1.75684,-0.6985 h 1.17123 l -0.58561,-1.41464 z"
             style="font-style:normal;font-variant:normal;font-weight:normal;font-stretch:normal;font-size:3.52777767px;font-family:Comfortaa;-inkscape-font-specification:Comfortaa;fill:#004999;fill-opacity:1;stroke-width:0.26458332"
             id="path875"
             inkscape:connector-curvature="0" />
        </g>
      </g>
      <g
         transform="translate(0.23122497,-5.8208336)"
         id="g6845">
        <g
           aria-label="Σ"
           style="font-style:normal;font-weight:normal;font-size:10.58333302px;line-height:1.25;font-family:sans-serif;letter-spacing:0px;word-spacing:0px;fill:#004999;fill-opacity:1;stroke:none;stroke-width:0.26458332"
           id="text6335">
          <path
             d="m 216.37969,316.59882 q 0.0847,0 0.14288,0.0635 0.0635,0.0582 0.0635,0.14287 0,0.0847 -0.0635,0.14817 -0.0582,0.0582 -0.14288,0.0582 h -2.48179 q -0.0847,0 -0.14816,-0.0582 -0.0582,-0.0635 -0.0582,-0.14817 0,-0.0741 0.0317,-0.11112 l 1.35996,-1.75155 -1.35996,-1.74625 q -0.0317,-0.0476 -0.0317,-0.11112 0,-0.09 0.0582,-0.14817 0.0635,-0.0582 0.14816,-0.0582 h 2.48179 q 0.0847,0 0.14288,0.0635 0.0635,0.0582 0.0635,0.14288 0,0.0847 -0.0635,0.14817 -0.0582,0.0582 -0.14288,0.0582 h -2.05845 l 1.19062,1.53459 q 0.037,0.0423 0.037,0.11641 0,0.0794 -0.037,0.12171 l -1.19062,1.53459 z"
             style="font-style:normal;font-variant:normal;font-weight:normal;font-stretch:normal;font-size:5.29166651px;font-family:Comfortaa;-inkscape-font-specification:Comfortaa;fill:#004999;fill-opacity:1;stroke-width:0.26458332"
             id="path850"
             inkscape:connector-curvature="0" />
        </g>
        <path
           transform="rotate(45)"
           style="opacity:1;fill:none;fill-opacity:1;stroke:#007bff;stroke-width:0.30000001;stroke-linecap:round;stroke-linejoin:round;stroke-miterlimit:4;stroke-dasharray:none;stroke-opacity:1"
           d="m 378.97284,67.69165 a 1,1 0 0 1 -1,1 1,1 0 0 1 -1,-1 1,1 0 0 1 1,-1 1,1 0 0 1 1,1 z"
           id="path4535-7-1-9-3-0-0"
           inkscape:connector-curvature="0" />
        <path
           style="fill:none;stroke:#004999;stroke-width:0.26499999;stroke-linecap:round;stroke-linejoin:miter;stroke-miterlimit:4;stroke-dasharray:none;stroke-opacity:1"
           d="m 213.7525,318.16069 9.3437,-0.0107"
           id="path6352"
           inkscape:connector-curvature="0" />
        <g
           aria-label="niBAR"
           style="font-style:normal;font-weight:normal;font-size:10.58333302px;line-height:1.25;font-family:sans-serif;letter-spacing:0px;word-spacing:0px;fill:#004999;fill-opacity:1;stroke:none;stroke-width:0.26458332"
           id="text6356">
          <path
             d="m 215.80541,319.27662 q 0.25048,0 0.44803,0.10583 0.20108,0.10583 0.31397,0.31044 0.11289,0.20109 0.11289,0.48331 v 0.91722 q 0,0.0565 -0.0388,0.0953 -0.0388,0.0388 -0.0953,0.0388 -0.06,0 -0.0988,-0.0388 -0.0388,-0.0388 -0.0388,-0.0953 v -0.91722 q 0,-0.31397 -0.17639,-0.47625 -0.17286,-0.16581 -0.45508,-0.16581 -0.17286,0 -0.31397,0.067 -0.13758,0.067 -0.21872,0.18697 -0.0811,0.11642 -0.0811,0.26106 v 1.04422 q 0,0.06 -0.0388,0.0988 -0.0353,0.0353 -0.0952,0.0353 -0.06,0 -0.0988,-0.0353 -0.0388,-0.0388 -0.0388,-0.0988 v -1.65805 q 0,-0.06 0.0388,-0.0988 0.0388,-0.0388 0.0988,-0.0388 0.06,0 0.0952,0.0388 0.0388,0.0388 0.0388,0.0988 v 0.11994 q 0.11641,-0.13053 0.28222,-0.20461 0.16581,-0.0741 0.35983,-0.0741 z"
             style="font-style:normal;font-variant:normal;font-weight:normal;font-stretch:normal;font-size:3.52777767px;font-family:Comfortaa;-inkscape-font-specification:Comfortaa;fill:#004999;fill-opacity:1;stroke-width:0.26458332"
             id="path854"
             inkscape:connector-curvature="0" />
          <path
             d="m 217.29501,321.93303 q -0.039,0 -0.0642,-0.0252 -0.0252,-0.0252 -0.0252,-0.0642 v -1.07544 q 0,-0.039 0.0252,-0.0642 0.0252,-0.0252 0.0642,-0.0252 0.039,0 0.0619,0.0252 0.0252,0.0252 0.0252,0.0642 v 1.07544 q 0,0.039 -0.0252,0.0642 -0.0229,0.0252 -0.0619,0.0252 z m -0.002,-1.49278 q -0.0527,0 -0.0894,-0.0367 -0.0344,-0.0367 -0.0344,-0.0894 0,-0.055 0.0367,-0.0894 0.0367,-0.0344 0.0894,-0.0344 0.0505,0 0.0871,0.0344 0.0367,0.0344 0.0367,0.0894 0,0.0527 -0.0367,0.0894 -0.0367,0.0367 -0.0894,0.0367 z"
             style="font-style:normal;font-variant:normal;font-weight:normal;font-stretch:normal;font-size:64.99999762%;font-family:Comfortaa;-inkscape-font-specification:Comfortaa;baseline-shift:sub;fill:#004999;fill-opacity:1"
             id="path856"
             inkscape:connector-curvature="0" />
          <path
             d="m 217.95541,321.93303 q -0.0459,0 -0.0734,-0.0229 -0.0275,-0.0252 -0.0275,-0.0665 v -1.61201 q 0,-0.039 0.0252,-0.0642 0.0252,-0.0252 0.0642,-0.0252 h 0.55722 q 0.13758,0 0.24765,0.0596 0.11236,0.0573 0.17656,0.16051 0.0665,0.10319 0.0665,0.2316 0,0.12153 -0.0665,0.21784 -0.0642,0.0963 -0.17427,0.14905 0.15822,0.0436 0.24994,0.15822 0.0917,0.11236 0.0917,0.28434 0,0.15363 -0.0711,0.27516 -0.0711,0.11924 -0.1972,0.18803 -0.12383,0.0665 -0.28434,0.0665 z m 0.54575,-1.04334 q 0.13987,0 0.22701,-0.078 0.0894,-0.0803 0.0894,-0.21784 0,-0.133 -0.0871,-0.20638 -0.0871,-0.0734 -0.2293,-0.0734 h -0.46779 v 0.57555 z m 0.039,0.87136 q 0.16739,0 0.27058,-0.0963 0.10548,-0.0986 0.10548,-0.26141 0,-0.15593 -0.10548,-0.24765 -0.10319,-0.094 -0.27058,-0.094 h -0.50677 v 0.69938 z"
             style="font-style:normal;font-variant:normal;font-weight:normal;font-stretch:normal;font-size:64.99999762%;font-family:Comfortaa;-inkscape-font-specification:Comfortaa;baseline-shift:sub;fill:#004999;fill-opacity:1"
             id="path858"
             inkscape:connector-curvature="0" />
          <path
             d="m 220.75064,321.80692 q 0.009,0.0161 0.009,0.0367 0,0.0367 -0.0275,0.0642 -0.0252,0.0252 -0.0619,0.0252 -0.0596,0 -0.0848,-0.055 l -0.15364,-0.37147 h -0.88741 l -0.15363,0.37147 q -0.0183,0.055 -0.0825,0.055 -0.039,0 -0.0642,-0.0252 -0.0229,-0.0275 -0.0229,-0.0642 0,-0.0229 0.007,-0.039 l 0.67416,-1.60055 q 0.0252,-0.0619 0.0871,-0.0619 0.0619,0 0.0848,0.0619 z m -1.14194,-0.45403 h 0.76129 l -0.38064,-0.91951 z"
             style="font-style:normal;font-variant:normal;font-weight:normal;font-stretch:normal;font-size:64.99999762%;font-family:Comfortaa;-inkscape-font-specification:Comfortaa;baseline-shift:sub;fill:#004999;fill-opacity:1"
             id="path860"
             inkscape:connector-curvature="0" />
          <path
             d="m 222.13794,321.79545 q 0.0206,0.0344 0.0206,0.0619 0,0.0344 -0.0252,0.055 -0.0252,0.0206 -0.0665,0.0206 -0.0275,0 -0.0459,-0.0115 -0.0183,-0.0115 -0.0321,-0.0344 l -0.41275,-0.65581 h -0.039 -0.33938 v 0.61224 q 0,0.039 -0.0252,0.0642 -0.0252,0.0252 -0.0642,0.0252 -0.039,0 -0.0642,-0.0252 -0.0252,-0.0252 -0.0252,-0.0642 v -1.61201 q 0,-0.039 0.0252,-0.0642 0.0252,-0.0252 0.0642,-0.0252 h 0.42881 q 0.16739,0 0.29809,0.0711 0.13071,0.0688 0.20408,0.19491 0.0757,0.12612 0.0757,0.28663 0,0.17657 -0.0963,0.30957 -0.094,0.13299 -0.25683,0.19032 z m -0.60078,-0.73607 q 0.11465,0 0.20637,-0.0459 0.094,-0.0482 0.14446,-0.13071 0.0527,-0.0826 0.0527,-0.18803 0,-0.11006 -0.0527,-0.1972 -0.0504,-0.0871 -0.14217,-0.13529 -0.0917,-0.0481 -0.20866,-0.0481 h -0.33938 v 0.74524 z"
             style="font-style:normal;font-variant:normal;font-weight:normal;font-stretch:normal;font-size:64.99999762%;font-family:Comfortaa;-inkscape-font-specification:Comfortaa;baseline-shift:sub;fill:#004999;fill-opacity:1"
             id="path862"
             inkscape:connector-curvature="0" />
        </g>
      </g>
      <path
         inkscape:connector-curvature="0"
         id="path1172-7-5-6"
         d="M 228.30458,312.33983 H 237.565"
         style="fill:none;stroke:#004999;stroke-width:0.26499999;stroke-linecap:round;stroke-linejoin:miter;stroke-miterlimit:4;stroke-dasharray:none;stroke-opacity:1;marker-end:url(#Arrow1Lend-1-3-7)" />
    </g>
  </g>
</svg>
