<?xml version="1.0" encoding="UTF-8" standalone="no"?>
<!-- Created with Inkscape (http://www.inkscape.org/) -->

<svg
   xmlns:dc="http://purl.org/dc/elements/1.1/"
   xmlns:cc="http://creativecommons.org/ns#"
   xmlns:rdf="http://www.w3.org/1999/02/22-rdf-syntax-ns#"
   xmlns:svg="http://www.w3.org/2000/svg"
   xmlns="http://www.w3.org/2000/svg"
   xmlns:sodipodi="http://sodipodi.sourceforge.net/DTD/sodipodi-0.dtd"
   xmlns:inkscape="http://www.inkscape.org/namespaces/inkscape"
   width="43.328205mm"
   height="9.5495262mm"
   viewBox="0 0 43.328205 9.5495262"
   version="1.1"
   id="svg4652"
   inkscape:version="0.92.4 (unknown)"
   sodipodi:docname="alg_6.svg">
  <defs
     id="defs4646">
    <marker
       inkscape:stockid="Arrow1Lend"
       orient="auto"
       refY="0"
       refX="0"
       id="Arrow1Lend-1-3-7-8"
       style="overflow:visible"
       inkscape:isstock="true">
      <path
         inkscape:connector-curvature="0"
         id="path1177-2-7-8-4"
         d="M 0,0 5,-5 -12.5,0 5,5 Z"
         style="fill:#004999;fill-opacity:1;fill-rule:evenodd;stroke:#004999;stroke-width:1.00000003pt;stroke-opacity:1"
         transform="matrix(-0.8,0,0,-0.8,-10,0)" />
    </marker>
  </defs>
  <sodipodi:namedview
     id="base"
     pagecolor="#ffffff"
     bordercolor="#666666"
     borderopacity="1.0"
     inkscape:pageopacity="0.0"
     inkscape:pageshadow="2"
     inkscape:zoom="5.6"
     inkscape:cx="43.3391"
     inkscape:cy="16.818263"
     inkscape:document-units="mm"
     inkscape:current-layer="g6836"
     showgrid="false"
     inkscape:window-width="1920"
     inkscape:window-height="1016"
     inkscape:window-x="0"
     inkscape:window-y="27"
     inkscape:window-maximized="1" />
  <metadata
     id="metadata4649">
    <rdf:RDF>
      <cc:Work
         rdf:about="">
        <dc:format>image/svg+xml</dc:format>
        <dc:type
           rdf:resource="http://purl.org/dc/dcmitype/StillImage" />
        <dc:title />
      </cc:Work>
    </rdf:RDF>
  </metadata>
  <g
     inkscape:label="Layer 1"
     inkscape:groupmode="layer"
     id="layer1"
     transform="translate(-6.3061396,-178.83238)">
    <g
       id="g7379"
       transform="translate(-206.99807,-142.24849)">
      <path
         style="fill:none;stroke:#004999;stroke-width:0.26499999;stroke-linecap:round;stroke-linejoin:miter;stroke-miterlimit:4;stroke-dasharray:none;stroke-opacity:1;marker-end:url(#Arrow1Lend-1-3-7-8)"
         d="M 228.30458,326.36274 H 237.565"
         id="path1172-7-5-6-9"
         inkscape:connector-curvature="0" />
      <g
         transform="translate(0,-6.3500003)"
         id="g6854">
        <g
           aria-label="Σ"
           style="font-style:normal;font-weight:normal;font-size:10.58333302px;line-height:1.25;font-family:sans-serif;letter-spacing:0px;word-spacing:0px;fill:#004999;fill-opacity:1;stroke:none;stroke-width:0.26458332"
           id="text6335-1">
          <path
             d="m 216.37969,331.15091 q 0.0847,0 0.14288,0.0635 0.0635,0.0582 0.0635,0.14287 0,0.0847 -0.0635,0.14817 -0.0582,0.0582 -0.14288,0.0582 h -2.48179 q -0.0847,0 -0.14816,-0.0582 -0.0582,-0.0635 -0.0582,-0.14817 0,-0.0741 0.0317,-0.11112 l 1.35996,-1.75154 -1.35996,-1.74625 q -0.0317,-0.0476 -0.0317,-0.11113 0,-0.09 0.0582,-0.14816 0.0635,-0.0582 0.14816,-0.0582 h 2.48179 q 0.0847,0 0.14288,0.0635 0.0635,0.0582 0.0635,0.14287 0,0.0847 -0.0635,0.14817 -0.0582,0.0582 -0.14288,0.0582 h -2.05845 l 1.19062,1.53458 q 0.037,0.0423 0.037,0.11642 0,0.0794 -0.037,0.12171 l -1.19062,1.53458 z"
             style="font-style:normal;font-variant:normal;font-weight:normal;font-stretch:normal;font-size:5.29166651px;font-family:Comfortaa;-inkscape-font-specification:Comfortaa;fill:#004999;fill-opacity:1;stroke-width:0.26458332"
             id="path840"
             inkscape:connector-curvature="0" />
        </g>
        <path
           inkscape:connector-curvature="0"
           id="path6352-2"
           d="m 213.7525,332.71277 9.3437,-0.0107"
           style="fill:none;stroke:#004999;stroke-width:0.26499999;stroke-linecap:round;stroke-linejoin:miter;stroke-miterlimit:4;stroke-dasharray:none;stroke-opacity:1" />
        <g
           aria-label="msgRNA"
           style="font-style:normal;font-weight:normal;font-size:10.58333302px;line-height:1.25;font-family:sans-serif;letter-spacing:0px;word-spacing:0px;fill:#004999;fill-opacity:1;stroke:none;stroke-width:0.26458332"
           id="text6356-0">
          <path
             d="m 215.33621,333.82868 q 0.20814,0 0.36689,0.0988 0.16228,0.0988 0.25047,0.28222 0.0917,0.17991 0.0917,0.4198 v 1.016 q 0,0.06 -0.0388,0.0988 -0.0353,0.0353 -0.0953,0.0353 -0.06,0 -0.0988,-0.0353 -0.0388,-0.0388 -0.0388,-0.0988 v -1.016 q 0,-0.25047 -0.13052,-0.39511 -0.127,-0.14816 -0.33514,-0.14816 -0.22225,0 -0.35984,0.14816 -0.13758,0.14817 -0.13405,0.38806 v 0.007 1.016 q 0,0.06 -0.0388,0.0988 -0.0353,0.0353 -0.0953,0.0353 -0.06,0 -0.0988,-0.0353 -0.0388,-0.0388 -0.0388,-0.0988 v -1.016 q 0,-0.25047 -0.13053,-0.39511 -0.127,-0.14816 -0.33514,-0.14816 -0.21872,0 -0.35983,0.14463 -0.14111,0.14464 -0.14111,0.37042 v 1.04422 q 0,0.06 -0.0388,0.0988 -0.0353,0.0353 -0.0952,0.0353 -0.06,0 -0.0988,-0.0353 -0.0388,-0.0388 -0.0388,-0.0988 v -1.65805 q 0,-0.06 0.0388,-0.0988 0.0388,-0.0388 0.0988,-0.0388 0.06,0 0.0952,0.0388 0.0388,0.0388 0.0388,0.0988 v 0.0776 q 0.0988,-0.11289 0.23283,-0.17286 0.13759,-0.0635 0.29634,-0.0635 0.19402,0 0.34925,0.0882 0.15522,0.0882 0.24694,0.24695 0.10231,-0.15875 0.26458,-0.24695 0.16581,-0.0882 0.37042,-0.0882 z"
             style="font-style:normal;font-variant:normal;font-weight:normal;font-stretch:normal;font-size:3.52777767px;font-family:Comfortaa;-inkscape-font-specification:Comfortaa;baseline-shift:sub;fill:#004999;fill-opacity:1;stroke-width:0.26458332"
             id="path843"
             inkscape:connector-curvature="0" />
          <path
             d="m 216.97186,336.49656 q -0.14217,0 -0.27287,-0.0481 -0.13071,-0.0482 -0.21097,-0.13529 -0.0229,-0.0275 -0.0229,-0.0527 0,-0.039 0.0367,-0.0688 0.0275,-0.0206 0.0573,-0.0206 0.039,0 0.0665,0.0321 0.055,0.0642 0.14446,0.0986 0.0917,0.0344 0.20179,0.0344 0.16051,0 0.24077,-0.055 0.0803,-0.055 0.0825,-0.14446 0,-0.0826 -0.0803,-0.13758 -0.0803,-0.055 -0.25453,-0.0825 -0.22472,-0.0367 -0.33708,-0.12612 -0.11006,-0.0917 -0.11006,-0.22013 0,-0.1674 0.12841,-0.25912 0.1307,-0.0917 0.32561,-0.0917 0.15134,0 0.2637,0.0527 0.11236,0.0505 0.18116,0.14217 0.0183,0.0298 0.0183,0.0527 0,0.039 -0.0367,0.0619 -0.016,0.0115 -0.0436,0.0115 -0.0481,0 -0.0803,-0.0344 -0.11236,-0.12841 -0.30727,-0.12841 -0.12612,0 -0.20179,0.0527 -0.0757,0.0505 -0.0757,0.12841 0,0.0826 0.0711,0.133 0.0711,0.0481 0.25224,0.078 0.24535,0.0413 0.35084,0.13529 0.10548,0.0917 0.10548,0.22931 0,0.10548 -0.0642,0.18803 -0.0619,0.0825 -0.17427,0.12841 -0.11236,0.0459 -0.25453,0.0459 z"
             style="font-size:64.99999762%;baseline-shift:sub;fill:#004999;fill-opacity:1"
             id="path845"
             inkscape:connector-curvature="0" />
          <path
             d="m 218.34081,335.21933 q 0.18345,0 0.32791,0.0825 0.14446,0.0803 0.22701,0.22701 0.0826,0.14446 0.0826,0.3302 v 0.46778 q 0,0.18345 -0.0826,0.3325 -0.0803,0.14905 -0.22472,0.23389 -0.14446,0.0871 -0.32561,0.0871 -0.17657,0 -0.31415,-0.0665 -0.13758,-0.0665 -0.2316,-0.18574 -0.0206,-0.0229 -0.0206,-0.0527 0,-0.0344 0.0321,-0.0596 0.0229,-0.0161 0.0504,-0.0161 0.0206,0 0.0413,0.009 0.0206,0.0115 0.0321,0.0275 0.0688,0.0871 0.17427,0.13529 0.10548,0.0482 0.23848,0.0482 0.12841,0 0.2316,-0.0642 0.10548,-0.0619 0.1651,-0.17657 0.0596,-0.11236 0.0596,-0.25912 v -0.10318 q -0.0688,0.1307 -0.19491,0.20637 -0.12612,0.0734 -0.28663,0.0734 -0.17886,0 -0.32103,-0.0803 -0.13988,-0.0825 -0.22013,-0.22701 -0.078,-0.14676 -0.078,-0.3302 0,-0.18574 0.0825,-0.3302 0.0825,-0.14676 0.22701,-0.22701 0.14676,-0.0825 0.32791,-0.0825 z m 0,1.11672 q 0.133,0 0.23848,-0.0596 0.10548,-0.0619 0.1651,-0.16969 0.0596,-0.11007 0.0596,-0.24765 0,-0.13758 -0.0596,-0.24536 -0.0596,-0.11006 -0.1651,-0.17198 -0.10548,-0.0619 -0.23848,-0.0619 -0.13529,0 -0.24077,0.0619 -0.10548,0.0619 -0.1651,0.17198 -0.0596,0.10778 -0.0596,0.24536 0,0.13758 0.0596,0.24765 0.0596,0.10777 0.1651,0.16969 0.10548,0.0596 0.24077,0.0596 z"
             style="font-size:64.99999762%;baseline-shift:sub;fill:#004999;fill-opacity:1"
             id="path847"
             inkscape:connector-curvature="0" />
          <path
             d="m 220.46418,336.34751 q 0.0206,0.0344 0.0206,0.0619 0,0.0344 -0.0252,0.055 -0.0252,0.0206 -0.0665,0.0206 -0.0275,0 -0.0459,-0.0115 -0.0183,-0.0115 -0.0321,-0.0344 l -0.41275,-0.65581 h -0.039 -0.33938 v 0.61225 q 0,0.039 -0.0252,0.0642 -0.0252,0.0252 -0.0642,0.0252 -0.039,0 -0.0642,-0.0252 -0.0252,-0.0252 -0.0252,-0.0642 v -1.61202 q 0,-0.039 0.0252,-0.0642 0.0252,-0.0252 0.0642,-0.0252 h 0.42881 q 0.16739,0 0.29809,0.0711 0.13071,0.0688 0.20409,0.19491 0.0757,0.12612 0.0757,0.28663 0,0.17657 -0.0963,0.30957 -0.094,0.13299 -0.25682,0.19032 z m -0.60078,-0.73607 q 0.11465,0 0.20637,-0.0459 0.094,-0.0482 0.14446,-0.1307 0.0527,-0.0826 0.0527,-0.18804 0,-0.11006 -0.0527,-0.1972 -0.0504,-0.0871 -0.14217,-0.13529 -0.0917,-0.0482 -0.20866,-0.0482 h -0.33938 v 0.74524 z"
             style="font-size:64.99999762%;baseline-shift:sub;fill:#004999;fill-opacity:1"
             id="path849"
             inkscape:connector-curvature="0" />
          <path
             d="m 220.8517,336.48509 q -0.039,0 -0.0642,-0.0252 -0.0252,-0.0252 -0.0252,-0.0642 v -1.61202 q 0,-0.039 0.0252,-0.0642 0.0252,-0.0252 0.0642,-0.0252 0.0413,0 0.0688,0.0321 l 1.09608,1.44004 v -1.38271 q 0,-0.039 0.0252,-0.0642 0.0275,-0.0252 0.0642,-0.0252 0.039,0 0.0642,0.0252 0.0252,0.0252 0.0252,0.0642 v 1.61202 q 0,0.0367 -0.0252,0.0642 -0.0252,0.0252 -0.0642,0.0252 -0.0459,0 -0.0665,-0.0298 l -1.09837,-1.44003 v 1.38042 q 0,0.0367 -0.0252,0.0642 -0.0252,0.0252 -0.0642,0.0252 z"
             style="font-size:64.99999762%;baseline-shift:sub;fill:#004999;fill-opacity:1"
             id="path851"
             inkscape:connector-curvature="0" />
          <path
             d="m 223.99777,336.35898 q 0.009,0.0161 0.009,0.0367 0,0.0367 -0.0275,0.0642 -0.0252,0.0252 -0.0619,0.0252 -0.0596,0 -0.0848,-0.055 l -0.15364,-0.37147 h -0.88741 l -0.15363,0.37147 q -0.0183,0.055 -0.0825,0.055 -0.039,0 -0.0642,-0.0252 -0.0229,-0.0275 -0.0229,-0.0642 0,-0.0229 0.007,-0.039 l 0.67416,-1.60055 q 0.0252,-0.0619 0.0871,-0.0619 0.0619,0 0.0848,0.0619 z m -1.14194,-0.45403 h 0.76129 l -0.38065,-0.91951 z"
             style="font-size:64.99999762%;baseline-shift:sub;fill:#004999;fill-opacity:1"
             id="path853"
             inkscape:connector-curvature="0" />
        </g>
        <path
           transform="matrix(0.96987622,0.02615304,-0.02615304,0.96987622,154.17949,226.87181)"
           style="opacity:1;fill:none;fill-opacity:1;stroke:#007bff;stroke-width:0.30920544;stroke-linecap:butt;stroke-linejoin:round;stroke-miterlimit:4;stroke-dasharray:none;stroke-opacity:1;paint-order:normal"
           inkscape:transform-center-x="0.0015409023"
           inkscape:transform-center-y="-0.28297133"
           d="m 71.0918,104.88084 -2.029552,0.0492 0.972142,-1.78226 z"
           id="path6643-2"
           inkscape:connector-curvature="0" />
      </g>
      <g
         transform="translate(-2.9635506,-6.3500003)"
         id="g6836">
        <path
           inkscape:transform-center-y="-3.049441e-06"
           inkscape:transform-center-x="3.7233334e-06"
           d="m 249.46663,334.03569 0,1e-5 -2.11667,-1e-5 -1e-5,0 1e-5,-2.11667 0,-10e-6 2.11667,10e-6 1e-5,0 z"
           inkscape:randomized="0"
           inkscape:rounded="0"
           inkscape:flatsided="false"
           sodipodi:arg2="0.78540108"
           sodipodi:arg1="0.78539816"
           sodipodi:r2="1.4967216"
           sodipodi:r1="1.4967093"
           sodipodi:cy="332.97736"
           sodipodi:cx="248.4083"
           sodipodi:sides="4"
           id="path6641"
           style="fill:none;fill-opacity:1;stroke:#007bff;stroke-width:0.26499999;stroke-linecap:round;stroke-linejoin:round;stroke-miterlimit:4;stroke-dasharray:none;stroke-dashoffset:0;stroke-opacity:1"
           sodipodi:type="star" />
        <text
           id="text6668"
           y="334.03571"
           x="250.62837"
           style="font-style:normal;font-weight:normal;font-size:10.58333302px;line-height:1.25;font-family:sans-serif;letter-spacing:0px;word-spacing:0px;fill:#004999;fill-opacity:1;stroke:none;stroke-width:0.26458332"
           xml:space="preserve"><tspan
             style="font-style:normal;font-variant:normal;font-weight:normal;font-stretch:normal;font-size:3.52777767px;font-family:Comfortaa;-inkscape-font-specification:Comfortaa;fill:#004999;fill-opacity:1;stroke-width:0.26458332"
             y="334.03571"
             x="250.62837"
             id="tspan6666"
             sodipodi:role="line">gene</tspan></text>
      </g>
    </g>
  </g>
</svg>
